<svg xmlns="http://www.w3.org/2000/svg" xmlns:xlink="http://www.w3.org/1999/xlink" id="Layer_1" width="210.24" height="227.52" x="0" style="enable-background:new 0 0 210.24 227.52" y="0" version="1.1" viewBox="0 0 210.24 227.52" xml:space="preserve"><image style="overflow:visible" width="303" height="248" transform="matrix(1 0 0 1 -8092.3599 -8081.3901)" xlink:href="E2EC220A.jpg"/><image style="overflow:visible" width="303" height="248" transform="matrix(1 0 0 1 -8092.3599 -8081.3901)" xlink:href="E2EC220E.jpg"/><g><path d="M83.1266,213.6769c-0.7948,0.1021-1.5165-0.0703-2.1503-0.573c-0.3227-0.0878-0.6454-0.1756-0.9682-0.2634l0.0505,0.0198 c-1.191-1.4081-3.6013-1.6075-3.5084-4.2387c-3.7436,0.5342-6.8813-0.2917-9.9733-1.6014c-5.8987-2.4986-11.7271-5.119-17.115-8.62 c-0.3809-0.2475-0.6171-0.7181-0.8701-1.024c0.4338-1.0598,2.1275-0.2725,2.1551-2.2833 c-2.7894-1.0196-5.5574,1.4311-8.3369,0.5944c-0.1779-0.2872-0.3558-0.5745-0.5336-0.8617 c0.6266-0.2696,1.0846-0.6477,0.9456-1.2953c-1.2752-1.1177-2.5624-2.0752-3.6355-3.2317 c-1.2164-1.3109-2.5944-1.7874-4.3048-1.4725c-3.4928-3.2137-7.4536-6.0685-8.6019-11.1203 c1.4916-1.4293,2.9712-1.5574,4.3295-0.03c3.0832,3.4669,7.23,5.6151,10.6193,8.6961c0.0605,0.2975,0.121,0.595,0.1815,0.8924 c0.225-0.1726,0.45-0.3451,0.675-0.5177c0.9918,0.4163,1.9837,0.8327,2.9755,1.249c0.0266,1.0943,0.495,2.2344,1.4932,2.3546 c3.2208,0.3878,5.5463,2.7258,8.5248,3.7591c2.7774,0.9635,6.3945,2.5067,6.6911,6.2769c3.0935,1.1306,4.1255-1.5154,5.9461-2.4158 c8.7121,1.8783,17.2943,4.4615,26.3478,3.7731c1.1557-0.0879,2.3266-0.0942,3.3005,0.7804 c2.4929,2.2386,4.5246,1.1901,6.4009-0.9363c1.0249-1.1616,2.1927-2.0615,3.8777-1.848c3.1907,0.4042,6.2238-0.6198,9.3297-1.002 c8.6196-1.0605,15.8643-5.9717,23.945-8.5485c1.1227-0.358,1.8849-1.8206,2.8369-2.7484c2.839-2.7672,5.2779-6.2997,8.6408-8.0835 c4.0888-2.1689,6.2661-5.0791,7.0334-9.0954c1.8186-1.1293,4.1076,0.2062,5.2678-1.8451c0.8163-1.4567-1.2736-2.7659,0.4964-5.214 c2.8373-1.3352,6.8577-0.3126,10.6961-0.4846c3.8239-0.1714,7.6654-0.1475,11.4918-0.0067 c3.8417,0.1413,7.7787-0.66,11.9718,0.6867c-1.7481,2.4429-3.465,3.8008-6.0626,2.8313c-2.1077-0.7867-2.6446,0.2336-2.8765,1.4896 c0.5541,2.2691,2.8859,1.4157,3.5946,3.018c-0.2136,1.0134-1.045,1.6136-1.7002,2.3344c-2.8606,3.1473-6.8388,5.0222-9.4771,8.4473 c-1.7123,2.2229-2.9723,5.0379-5.4805,6.3619c-4.5923,2.424-8.4411,5.782-12.4432,8.9654 c-8.5648,6.8126-19.499,8.6581-28.8522,13.8157c-0.2654,0.1463-0.6656,0.0231-0.9861,0.098 c-10.6887,2.4959-21.5072,3.5731-32.4786,3.0046c-5.1129-0.2649-10.2716,0.6199-15.352-0.8959 C86.0091,212.5015,84.2272,212.0891,83.1266,213.6769z M78.3895,206.3856c2.4025,4.2299,3.3973,4.4376,6.4859,1.3542 C82.2405,204.305,82.2405,204.305,78.3895,206.3856z"/><path d="M33.819,169.8198c-3.3147-3.8042-6.497-7.7187-9.211-11.9761c-1.1947-1.8741-2.8312-3.6422-2.4857-6.1678 c0.9498-0.1112,2.0375,0.2308,2.8594-1.0474c0.1092-2.533,0.8135-5.3839-2.2496-7.3945c2.9758-3.8349,3.5917-7.9724,3.3726-12.3898 c-0.2785-5.6157-0.6544-11.2667-0.7828-16.838c-0.2862-12.4244-1.2845-24.9243,0.5792-37.3396 c0.0924-0.6155,0.0192-1.3776-0.2721-1.9095c-1.922-3.5088-1.2309-6.9774,0.0707-10.4312 c0.3709-0.9843,0.6744-2.1257,0.1938-2.9017c-1.2922-2.0867-0.4527-3.8031,0.5093-5.5884 c0.6663-1.2366,1.2323-2.4618-0.4626-3.3753c0.2051-0.3607,0.4101-0.7214,0.6152-1.0821c0.2609-0.1386,0.4254-0.3543,0.4934-0.6469 l0.1755-0.2395c0.4837-0.1445,0.7431-0.4733,0.7969-0.9711l0.0418-0.0513c2.232-0.7434,3.8311-2.2341,5.1234-4.1654 c0.996-1.4886,1.9512-3.2077,4.3414-2.4749c1.3871,2.6987,0.4916,5.6679,0.958,8.4555c1.27,7.5906,0.8136,15.2485,0.2993,22.7964 c-0.232,3.4047-0.7916,6.4296,1.4058,9.4984c-1.8674,1.9024-2.1558,4.4668-3.3997,6.5698 c-1.0831,1.8311-0.2391,2.7477,1.3258,3.4755c0.0451,0.4347,0.0901,0.8694,0.1352,1.3041 c0.0607,0.2318,0.0175,0.4423-0.1295,0.6315c-0.8277,0.2863-1.5161,0.8306-1.7881,1.6224 c-2.0679,6.0196-5.4153,11.549-6.4158,18.0068c-0.3778,2.4387-0.5356,4.9159-1.0166,7.3168 c-1.8229,9.0998-0.6852,18.0481,1.0497,26.9812c1.391,7.1621,3.4935,14.0589,7.5587,20.2453 c0.7514,1.1436,0.9785,2.628-1.1736,2.8455l-0.1746-0.182C35.4534,171.4719,35.2461,170.0903,33.819,169.8198z"/><path d="M81.9127,121.1077c3.786-5.9731,9.2529-10.3819,14.2314-15.2397c0.4028-0.393,1.2294-0.3508,1.8591-0.5109 c1.2699,4.8761,4.1954,8.5276,8.2954,11.3415c4.0906,2.8075,7.9912,5.8267,11.7265,9.132 c2.5031,2.2149,2.8122,5.5558,4.5481,7.2989c2.253,1.2249,3.6989-0.7648,4.88-0.2559c2.7421,1.6246,0.71,4.5791,3.2375,6.539 c2.5829,1.0679,6.3706-0.81,9.4684,1.2803c-8.6114,2.5089-17.511,2.985-26.3723,3.4883 c-6.0663,0.3445-12.1849,0.7224-18.2406-0.4163c3.3792-0.4927,6.8695,0.4139,10.8557-0.6859 c-2.5779-4.0299-5.9533-5.9908-10.0265-6.9841c-0.2218-2.7766-1.4603-4.2594-3.9867-5.6896 C88.3563,128.1225,83.8925,125.8888,81.9127,121.1077z"/><path d="M98.1069,54.4885c-7.532,1.2717-14.8666,3.2777-22.0275,5.9301c0.0373-2.6298,4.1029-2.4076,3.7577-5.2793 c-0.6487-1.7079-2.9917-1.5702-3.6571-3.7654c1.3299-3.4443,0.7597-7.4258,0.9553-11.3599 c0.2618-5.2653-0.891-10.6071,0.868-15.8021c0.3197-0.9443-0.2191-1.9101-0.4376-2.8758c-0.7069-3.1236-3.6021-4.0729-5.5295-5.974 c4.056-2.2207,8.4388-3.3589,12.9928-3.9307c1.3755-0.1744,2.9667,0.6933,4.0605-0.8418c0.2351-0.3146,0.5225-0.3734,0.862-0.1762 c0.7269,0.0591,1.4638,0.1666,2.0543-0.4288c1.6524-0.6901,3.3554-0.7775,5.095-0.428 C97.5899,24.5304,96.0678,39.5494,98.1069,54.4885z"/><path d="M145.4309,95.3301c6.8707-2.5767,14.1055-4.1003,20.7913-7.2173c1.4478-0.675,3.2279-0.8033,3.9489-2.5795 c0.9713-0.0187,1.9427-0.0374,2.9141-0.056c0.005,3.4707,3.0319,2.8165,4.2948,3.2831 c4.8687,4.8101,7.9956,10.8052,15.2098,10.5561c3.1889,4.1839-3.2023,7.741-0.5807,12.4807 c1.9437-2.0312,2.6595-5.1232,5.8051-5.0734c-2.4277,3.9404-4.3129,8.2958-8.3853,10.9779 c-0.6586,0.043-1.0779,0.3663-1.2057,1.0311l0.0541-0.0515c-0.6094,0.0878-0.9616,0.4352-1.0536,1.0453l0.0388-0.0252 c-1.5418-0.0677-3.2858-0.4166-2.9507,2.1255l0.0276-0.0907c-0.6591,0.0351-1.0222,0.38-1.0854,1.0387l0.0514-0.0607 c-0.6273,0.0552-0.9875,0.3957-1.0851,1.017l0.0412-0.0239c-1.2403-0.2609-2.6429,0.3181-3.7214-0.6829 c-0.5963-1.1089-0.2992-2.2745-0.3776-3.3991c0.7146-0.1277,1.6513,0.0412,1.6534-1.0946 c0.0004-0.1967-0.3674-0.5638-0.5642-0.5632c-1.1341,0.0038-0.9668,0.9391-1.0912,1.6557 c-1.5871-0.2071-3.3255,0.5331-4.7328-0.7034c-0.6815-5.397-4.1368-9.1603-9.5095-10.3157 c-2.4385-0.5244-3.5429-1.9349-3.8195-4.4459c-0.3419-3.1032-2.2281-5.4075-4.6947-5.4625 c-2.4752-0.0552-4.5118-0.4853-6.2013-2.4022C148.2383,95.1995,146.6829,95.6987,145.4309,95.3301z"/><path d="M140.1591,140.693c-3.0979-2.0903-6.8855-0.2124-9.4684-1.2803c-2.5275-1.96-0.4954-4.9144-3.2375-6.539 c-1.1811-0.5089-2.627,1.4808-4.88,0.2559c-1.7358-1.7431-2.045-5.084-4.5481-7.2989c-3.7353-3.3053-7.6359-6.3244-11.7265-9.132 c-4.1-2.8139-7.0255-6.4654-8.2954-11.3415c2.4868-3.1411,4.9979-6.2523,9.0944-7.416c0.1977,1.1252-1.1521,2.0083-0.4979,3.2415 c1.5122,0.7854,3.2394,0.6407,4.7124,0.3159c1.694-0.3735,3.2195,2.123,4.8191,0.1013c0.8283,0.0103,1.6408,0.0523,2.0056,0.9967 c-0.5242,3.4915,0.5219,6.3578,3.8082,7.8577c6.7734,3.0913,11.9157,8.0592,16.48,13.757 c2.4166,3.0167,5.0843,5.6643,9.1071,6.3868c0.9023,0.162,2.1026-0.2217,2.3166,1.0187c-0.0261,2.0344-3.6798,1.8927-2.1808,4.7235 c2.1219,0.2335,4.405,0.4847,6.6881,0.736C149.8179,139.0454,144.9637,139.7718,140.1591,140.693z"/><path d="M83.1266,213.6769c1.1006-1.5878,2.8825-1.1754,4.1112-0.8087c5.0804,1.5158,10.2391,0.631,15.352,0.8959 c10.9714,0.5686,21.7899-0.5087,32.4786-3.0046c0.3204-0.0748,0.7206,0.0484,0.9861-0.098 c9.3532-5.1576,20.2873-7.0031,28.8522-13.8157c4.0022-3.1834,7.8509-6.5413,12.4432-8.9654 c2.5082-1.324,3.7682-4.1389,5.4805-6.3619c2.6383-3.4251,6.6165-5.3,9.4771-8.4473c0.6552-0.7209,1.4867-1.321,1.7002-2.3344 c-0.7087-1.6023-3.0406-0.749-3.5946-3.018c0.2319-1.256,0.7687-2.2763,2.8765-1.4896c2.5976,0.9695,4.3145-0.3884,6.0626-2.8313 c-4.1931-1.3467-8.1301-0.5453-11.9718-0.6867c-3.8264-0.1408-7.6679-0.1647-11.4918,0.0067 c-3.8384,0.1721-7.8588-0.8506-10.6961,0.4846c-1.77,2.4482,0.3199,3.7573-0.4964,5.214 c-1.1601,2.0513-3.4492,0.7158-5.2678,1.8451c-0.7673,4.0163-2.9446,6.9265-7.0334,9.0954 c-3.3629,1.7838-5.8018,5.3163-8.6408,8.0835c-0.952,0.9278-1.7141,2.3904-2.8369,2.7484 c-8.0807,2.5767-15.3254,7.4879-23.945,8.5485c-3.1059,0.3822-6.139,1.4063-9.3297,1.002c-1.685-0.2135-2.8528,0.6864-3.8777,1.848 c-1.8763,2.1264-3.908,3.175-6.4009,0.9363c-0.9739-0.8746-2.1448-0.8683-3.3005-0.7804 c-9.0535,0.6884-17.6357-1.8949-26.3478-3.7731c-1.8206,0.9005-2.8526,3.5465-5.9461,2.4158 c-0.2966-3.7701-3.9137-5.3134-6.6911-6.2769c-2.9785-1.0333-5.3039-3.3713-8.5248-3.7591 c-0.9981-0.1202-1.4665-1.2603-1.4932-2.3546c2.3728,0.3323,4.2228,1.8669,6.3479,2.7703 c27.6603,11.7579,55.2802,12.1997,82.5969-0.8582c11.6887-5.5874,20.4052-14.8459,27.6735-25.3921 c1.838-2.6669,3.7115-3.7062,6.9128-3.6551c11.2991,0.1804,22.6028,0.0702,34.4479,0.0702 c-1.6121,4.549-4.411,7.6288-6.9683,10.756c-16.239,19.8577-36.2675,34.1424-61.1785,41.0878 c-12.4852,3.481-25.1867,4.5408-38.0778,3.1378C92.2145,215.4116,87.5333,215.3771,83.1266,213.6769z"/><path d="M25.9401,52.4606c1.6949,0.9135,1.1289,2.1387,0.4626,3.3753c-0.962,1.7853-1.8015,3.5017-0.5093,5.5884 c0.4806,0.776,0.1771,1.9174-0.1938,2.9017c-1.3015,3.4538-1.9926,6.9224-0.0707,10.4312 c0.2913,0.5319,0.3645,1.2939,0.2721,1.9095c-1.8636,12.4153-0.8654,24.9152-0.5792,37.3396 c0.1284,5.5713,0.5043,11.2223,0.7828,16.838c0.2191,4.4174-0.3968,8.5548-3.3726,12.3898 c3.0631,2.0105,2.3589,4.8615,2.2496,7.3945c-0.8219,1.2782-1.9096,0.9362-2.8594,1.0474 c-3.1949-4.6034-6.6127-9.1024-7.0195-15.0117c0.9492-0.1184,2.0321,0.2145,2.7556-0.8518c0.2647-1.427,0.6287-3.009-0.4797-4.2206 c-1.9815-2.166-1.6875-4.8146-1.0421-7.0721c0.6645-2.3242,0.6126-4.5662,0.7306-6.8642 c0.3874-7.5409-0.7064-15.0795-0.0219-22.6234c0.1037-1.1428,0.1376-2.3311-0.4631-3.4108 c-0.6868-1.2346-0.8522-2.6969-0.3675-3.8713c1.1803-2.8596,1.1329-5.3285-0.8454-7.8813 c-0.7609-0.9819-0.5439-2.6282,0.0431-3.8455c0.6881-1.427,0.695-2.881,0.669-4.3763c0.1197-0.3868,0.2394-0.7736,0.3592-1.1603 c0.6805-0.334,0.669-0.9744,0.7047-1.5938l-0.0674-0.2576l0.248-0.0966c0.5159-0.2609,0.6922-0.6883,0.609-1.2431 C19.7046,61.8647,22.55,57.0154,25.9401,52.4606z"/><path d="M72.036,15.3621c1.9274,1.9012,4.8226,2.8504,5.5295,5.974c0.2185,0.9657,0.7573,1.9315,0.4376,2.8758 c-1.7589,5.195-0.6061,10.5368-0.868,15.8021c-0.1956,3.9341,0.3746,7.9156-0.9553,11.3599 c0.6654,2.1951,3.0085,2.0574,3.6571,3.7654c0.3452,2.8717-3.7203,2.6495-3.7577,5.2793c-0.7807,0.8353-1.7373,1.2827-2.8844,1.31 c-1.7877-2.0684-2.4085-0.5459-3.0265,0.9852c-0.2278,0.4267-0.3449,1.0551-0.6998,1.2501 c-6.7433,3.705-12.3286,8.9475-18.2751,13.709c0.0787-2.2065,0.8662-4.0116,2.8918-5.1157 c3.346-2.6151,6.6919-5.2302,10.1976-7.9702c-1.4576-2.9105-1.1803-5.8938-1.1831-8.8462 c-0.0078-8.2844-0.096-16.5702,0.0226-24.8529c0.1292-9.0275-0.857-7.1528-7.2403-7.484 C60.7333,19.6497,66.1722,17.0784,72.036,15.3621z"/><path d="M118.1368,102.5965c-0.3648-0.9444-1.1773-0.9864-2.0056-0.9967c-0.0054-1.8891,1.2461-2.0471,2.698-2.0066 c2.3163,0.0646,4.6562,0.2106,6.7254-1.1697c2.1688-0.3897,4.2831-1.2865,6.5561-0.7051c0.2775,1.1819-1.0588,2.0967-0.4732,3.5816 c2.6454,0.6217,5.46,0.2978,8.2284,0.2626c2.6599-0.0338,4.6044,0.8094,5.2303,3.5075c0.4201,1.8111,1.634,3.0851,2.9923,3.8224 c6.5707,3.5666,11.7286,8.7829,16.8321,14.0541c3.3663,3.4769,7.0283,5.8188,12.1085,4.6698 c-3.8877,2.1336-7.4382,4.9479-11.9074,5.9075c-0.6051-0.9499-0.7796-0.4622-0.8824,0.2648c0,0,0.0122-0.0663,0.0122-0.0663 c-2.3665-0.0251-4.7331-0.0502-7.0996-0.0754c-1.4585-3.8683-4.4388-6.4305-7.5944-8.8339 c-2.2146-1.6867-4.6075-3.1737-6.6477-5.0477c-3.5858-3.2936-6.4583-7.3349-10.8069-9.8438 c-1.3743-0.7929-2.5138-2.103-3.1523-3.736c-1.1245-2.876-3.4149-3.789-6.3454-3.6032 C121.1214,102.6764,119.6266,102.5973,118.1368,102.5965z"/><path d="M197.8141,106.7239c-3.1456-0.0497-3.8614,3.0422-5.8051,5.0734c-2.6216-4.7397,3.7697-8.2969,0.5807-12.4807 c-7.2142,0.2491-10.3411-5.746-15.2098-10.5561c-1.2629-0.4666-4.2898,0.1876-4.2948-3.2832 c0.0382-0.6271,0.0764-1.2542,0.1146-1.8813l0.4802,0.0028l0.4792-0.0318c2.8381,0.6742,3.9623-2.074,5.9955-3.0072 c3.1416-1.5345,6.5084-2.808,8.8768-5.4703c1.8117-2.0366,3.8798-2.8311,6.4699-2.668c4.31,1.4603,4.0686,5.6428,4.7074,8.8623 c0.7324,3.6919,1.2029,7.5008,1.2011,11.3918C201.4076,97.7905,200.6824,102.4635,197.8141,106.7239z"/><path d="M152.1763,20.4033c0.8537-0.0259,1.5454,0.264,1.9955,1.0252c-0.0553,2.4456,1.6705,2.0396,3.1757,1.9866 c3.6771,1.4134,6.833,3.505,8.9791,6.9109l-0.2259,0.2437c-1.3548,0.0476-2.5495-0.5382-3.8162-0.8751 c-1.7262-0.4591-2.795,0.4054-2.907,2.3288c1.5556,1.2866,3.0309,2.5788,4.5812,3.7733c2.8711,2.2122,3.1116,5.5866,1.7276,8.0415 c-1.6326,2.8957-1.4108,5.6567-1.5304,8.5666c-0.2019,4.9119,0.4037,9.8594-0.4372,15.1478c-2.326,0-4.4534,0-6.5808,0 c-1.9152-0.4217-3.8281-0.8492-5.6701-2.1024c-0.2672-10.0135,1.7399-20.0734-0.1194-30.2687 c0.1599-0.2369,0.408-0.67,0.7178-1.0531c2.8566-3.5323,2.8816-4.4741,0.1347-8.0862c-0.8923-1.1733-1.7787-2.3376-1.7884-3.8645 C151.0412,21.5451,151.6087,20.9742,152.1763,20.4033z"/><path d="M177.0291,127.6165c-5.0802,1.149-8.7422-1.1928-12.1085-4.6698c-5.1035-5.2712-10.2614-10.4875-16.8321-14.0541 c-1.3583-0.7373-2.5722-2.0113-2.9923-3.8224c-0.6259-2.6981-2.5704-3.5413-5.2303-3.5075 c-2.7684,0.0352-5.583,0.359-8.2284-0.2626c-0.5857-1.485,0.7506-2.3997,0.4732-3.5816c4.4406-0.7932,9.0601-0.5869,13.3202-2.3883 c1.252,0.3686,2.8073-0.1306,3.7717,0.9635c1.6895,1.9169,3.7261,2.347,6.2013,2.4022c2.4666,0.055,4.3528,2.3593,4.6947,5.4625 c0.2766,2.511,1.3811,3.9216,3.8195,4.4459c5.3727,1.1554,8.828,4.9186,9.5095,10.3157c1.4074,1.2365,3.1457,0.4963,4.7328,0.7034 l0.0021,0.0021c0.0784,1.1246-0.2186,2.2902,0.3776,3.3991c1.0784,1.001,2.4811,0.422,3.7214,0.6829 C181.2478,125.9897,179.1521,126.8214,177.0291,127.6165z"/><path d="M55.8822,23.4038c6.3833,0.3312,7.3695-1.5435,7.2403,7.484c-0.1186,8.2827-0.0303,16.5685-0.0226,24.8529 c0.0028,2.9524-0.2745,5.9357,1.1831,8.8462c-3.5057,2.74-6.8517,5.3551-10.1976,7.9702c0.3681-2.3242-2.2104-2.64-3.0122-4.244 c0.3003-2.2225,2.5144-3.6407,1.8172-6.4276c-1.8322-7.3237-0.9035-14.8815-0.482-22.2887c0.1398-2.4571,0.339-4.7737-0.4162-7.191 c1.683-1.6816,2.4116-3.629,2.0931-5.9073c0.0001-0.6631,0.0002-1.3262,0.0003-1.9894l0.0331-0.0208 c0.3115-0.2206,0.623-0.4412,0.9345-0.6618C55.3296,23.6856,55.6059,23.5447,55.8822,23.4038z"/><path d="M135.1359,13.4432c0.8186-0.2884,1.5272-0.1103,2.133,0.5037c0.087,1.5545,0.9659,2.5633,2.4538,2.4591 c2.469-0.1728,4.3617,1.1012,6.4006,2.0718c-1.9469,5.4992-2.2664,11.1823-1.9999,16.9504c0.1144,2.476,0.197,4.9777-0.0245,7.439 c-0.2978,3.3103,0.2923,6.1981,3.1288,8.4113c-1.3869,2.6518-2.5438,5.205-2.0914,8.1258 c0.1935,1.2489-0.6699,2.1742-1.0428,3.2498c-0.8097-0.0492-1.5598-0.2175-2.0014-1.0026 c0.0774-1.0546-0.1241-2.3794-1.0973-2.5365c-2.4711-0.3988-4.012-2.9256-6.7698-2.6337 c-1.6875,0.1786-3.1013-0.6251-3.8855-1.9714c0.9156-3.0839,4.8248-0.8511,5.6489-4.1686 c-2.0618-1.9114-1.688-4.7305-1.9074-7.5036c-0.5011-6.334,1.6791-12.918-1.7059-19.0082 c-0.2673-0.4809-0.1943-1.3841,0.0824-1.8947c1.2287-2.2675,0.5801-4.46-0.1551-6.6333 C133.0188,14.2001,134.7287,14.8026,135.1359,13.4432z"/><path d="M81.9127,121.1077c1.9798,4.7811,6.4437,7.0148,10.4761,9.2976c2.5264,1.4302,3.7649,2.913,3.9867,5.6896 c4.0732,0.9933,7.4485,2.9542,10.0265,6.9841c-3.9862,1.0998-7.4766,0.1932-10.8557,0.6859 c-9.1878,0.0873-18.1329-1.5849-27.8257-3.5359C72.2425,133.1937,76.1784,126.514,81.9127,121.1077z"/><path d="M135.1359,13.4432c-0.4072,1.3594-2.1171,0.7569-2.8335,1.8582c0.7352,2.1733,1.3838,4.3658,0.1551,6.6333 c-0.2767,0.5106-0.3497,1.4139-0.0824,1.8947c3.385,6.0902,1.2047,12.6742,1.7059,19.0082 c0.2194,2.7731-0.1544,5.5922,1.9074,7.5036c-0.8241,3.3175-4.7333,1.0848-5.6489,4.1686c0.7841,1.3463,2.198,2.15,3.8855,1.9714 c2.7578-0.2919,4.2987,2.2349,6.7698,2.6337c0.9732,0.157,1.1747,1.4819,1.0973,2.5365c-5.9887-2.0685-11.9774-4.137-17.966-6.2055 c0.8856-3.3009-2.6757-2.4781-3.7609-3.5952c0.3131-2.4013,2.7878-2.1816,3.8208-4.8309c0-7.7375,0-16.5193,0-25.3012 c0.922-1.696,3.9281-0.5057,3.8388-3.3392c-0.6157-1.4822-3.186-1.2665-3.7829-3.1208c-0.7129-1.9296,0.9451-2.6051,1.8718-3.6605 C129.4892,10.4105,132.1545,12.7011,135.1359,13.4432z"/><path d="M126.1138,11.5981c-0.9267,1.0554-2.5847,1.731-1.8718,3.6605c0.5969,1.8543,3.1672,1.6387,3.7829,3.1208 c0.0892,2.8335-2.9168,1.6432-3.8388,3.3392c0,8.7818,0,17.5636,0,25.3012c-1.033,2.6493-3.5077,2.4296-3.8208,4.8309 c1.0852,1.1171,4.6465,0.2943,3.7609,3.5952c-2.4361,0.3256-4.7193-0.3719-7.0055-1.0487 c-2.8654-4.7202-3.2426-9.8836-3.0471-15.2636c0.2241-6.1665-0.005-12.348,0.0733-18.5217 c0.0473-3.7234,1.3924-7.4436-0.0153-11.1664C118.3487,8.9187,122.1414,10.7592,126.1138,11.5981z"/><path d="M114.1314,9.4456c1.4077,3.7228,0.0625,7.443,0.0153,11.1664c-0.0784,6.1736,0.1508,12.3552-0.0733,18.5217 c-0.1955,5.38,0.1817,10.5434,3.0471,15.2636c-4.3312-0.1233-8.6624-0.2465-12.9937-0.3698 c0.1413-2.4874,3.086-0.6467,3.8495-2.7689c-3.2896-2.3717-2.8878-6.0498-2.8699-9.6659 c0.0427-8.6292,0.0326-17.2589-0.0032-25.8881c-0.0066-1.6038,0.474-3.3688-1.252-4.8204 c-1.1752-1.1957-3.5571,0.5902-4.7344-1.4061C104.1194,8.3579,109.1242,8.3509,114.1314,9.4456z"/><path d="M180.1547,80.5598c-2.0331,0.9332-3.1574,3.6814-5.9955,3.0072c0.2537-1.1032,0.5074-2.2064,0.7334-3.1895 c-0.837-1.4117-2.7945-0.1327-3.442-1.7485c0.1555-2.7302,3.5345-1.4449,4.5047-3.9668c0.6746-8.481,0.2168-17.6746,3.0198-26.5853 c-2.384-0.965-4.8014-1.6222-6.6295-3.3532c-0.2564-1.5945-0.4955-3.138,1.8225-3.2167c1.4405,0.7157,2.9709,1.667,3.0544-1.1689 c1.5477,0.2985,2.7,1.0489,3.0716,2.6917c-0.0176,0.8262,0.3809,1.3376,1.1721,1.5519c4.4881,3.3676,6.0436,8.7192,8.9075,13.1858 c0.6896,1.0754,1.3897,2.1441,2.085,3.2159c-0.5043,1.2744-1.3174,1.8585-2.6434,1.2379c-2.1022-1.7863-1.2053-6.0253-5.487-6.4271 c-0.0865,5.8569,3.3905,9.9576,5.9346,14.1074c-0.6349,2.1194-2.2883,2.7405-3.3717,3.8925 C184.7066,76.1167,180.61,76.5635,180.1547,80.5598z"/><path d="M38.1169,93.6248c-1.5649-0.7278-2.4089-1.6444-1.3258-3.4755c1.2439-2.1029,1.5323-4.6674,3.3997-6.5698 c-2.1975-3.0689-1.6378-6.0937-1.4058-9.4984c0.5144-7.5479,0.9707-15.2058-0.2993-22.7964 c-0.4664-2.7876,0.429-5.7568-0.958-8.4555c-2.3902-0.7328-3.3454,0.9863-4.3414,2.4749 c-1.2922,1.9313-2.8914,3.4221-5.1234,4.1654c3.1843-6.052,7.8954-10.7613,13.1566-14.9871 c0.2893-0.2698,0.5786-0.5396,0.868-0.8095c0,0,0.1786-0.1306,0.1786-0.1306c0.6069-0.0116,1.2138-0.0231,1.8207-0.0347 c1.0725,1.6127,1.0146,3.4303,1.0075,5.26c-0.0243,6.3016-0.045,12.6036,0.0083,18.9049c0.0211,2.4939,0.0814,4.9467-2.3072,6.9591 c3.1995,1.6398,3.4205,3.5764,2.662,6.6878c-0.9548,3.9166-2.171,8.2553,0.4568,12.2152 c-0.0789,1.3505-1.0518,2.1416-1.8862,3.0194c-0.6104,0.1558-0.9071,0.5442-0.8719,1.1785 c-0.0035,0.3207-0.1408,0.5664-0.4119,0.7373c-1.3315,0.1334-1.7813,0.9201-1.6055,2.1704l0.0097-0.0148 C39.3597,90.8373,39.4162,92.9173,38.1169,93.6248z"/><path d="M16.0815,71.6469c0.0259,1.4953,0.019,2.9493-0.669,4.3763c-0.5869,1.2173-0.804,2.8636-0.0431,3.8455 c1.9783,2.5528,2.0257,5.0217,0.8454,7.8813c-0.4847,1.1743-0.3193,2.6367,0.3675,3.8713c0.6007,1.0798,0.5668,2.268,0.4631,3.4108 c-0.6845,7.5439,0.4093,15.0825,0.0219,22.6234c-0.118,2.298-0.0661,4.54-0.7306,6.8642 c-0.6454,2.2576-0.9394,4.9062,1.0421,7.0721c1.1084,1.2116,0.7444,2.7935,0.4797,4.2206 c-0.7235,1.0663-1.8064,0.7335-2.7556,0.8518c-0.578-0.979-1.4476-1.7053-1.7964-2.9109 c-5.8892-20.359-5.2705-40.5193,1.6869-60.5113C15.2134,72.6097,15.4333,71.9836,16.0815,71.6469z"/><path d="M45.9143,83.5348c-2.6278-3.9599-1.4116-8.2986-0.4568-12.2152c0.7585-3.1115,0.5375-5.048-2.662-6.6878 c2.3886-2.0123,2.3283-4.4652,2.3072-6.9591c-0.0534-6.3012-0.0326-12.6033-0.0083-18.9049c0.007-1.8297,0.065-3.6473-1.0075-5.26 c-0.0784-0.4225-0.1567-0.845-0.2351-1.2675l0.2081,0.1547l-0.2357-0.108c1.576,0.3672,2.3087-0.2589,2.2024-1.8731l-0.0214,0.0229 c2.9098,0.285,4.6642-0.9379,5.0843-3.9022l0.0488-0.0344c0.9824-0.0006,1.9648-0.0012,2.9472-0.0018 c0.3185,2.2783-0.4102,4.2257-2.0931,5.9073c0.7552,2.4172,0.556,4.7339,0.4162,7.191c-0.4215,7.4073-1.3502,14.965,0.482,22.2887 c0.6972,2.7869-1.5169,4.2051-1.8172,6.4276c0.8018,1.6041,3.3803,1.9199,3.0122,4.244c-2.0256,1.1041-2.8131,2.9093-2.8918,5.1157 l0.0081-0.0353c-1.4447-0.17-2.157,0.4575-2.0955,1.9276l-0.044,0.0173c-0.3296,0.2765-0.6592,0.553-0.9887,0.8294 C48.0047,81.9037,46.5258,82.4189,45.9143,83.5348z"/><path d="M144.0935,62.654c0.3729-1.0756,1.2363-2.0009,1.0428-3.2498c-0.4525-2.9208,0.7044-5.474,2.0914-8.1258 c-2.8365-2.2132-3.4266-5.1009-3.1288-8.4113c0.2214-2.4613,0.1388-4.963,0.0245-7.439 c-0.2664-5.7681,0.0531-11.4512,1.9999-16.9504c0.0078-0.3439,0.0156-0.6878,0.0234-1.0318 c2.2946,0.4042,4.291,1.4176,6.0296,2.9573c-0.5675,0.5709-1.1351,1.1418-1.7639,1.7744c0.0097,1.5269,0.8961,2.6912,1.7884,3.8645 c2.747,3.6121,2.7219,4.5539-0.1347,8.0862c-0.3098,0.3831-0.5579,0.8162-0.7178,1.0531 c1.8593,10.1953-0.1478,20.2552,0.1194,30.2687c1.842,1.2532,3.755,1.6807,5.6701,2.1024 c0.0053,0.9832,0.0105,1.9665,0.0158,2.9497c-0.3279,0.0229-0.6562,0.0374-0.9848,0.0435 C152.1437,67.9152,148.1186,65.2846,144.0935,62.654z"/><path d="M99.1169,9.4779c1.1772,1.9963,3.5592,0.2104,4.7344,1.4061c1.726,1.4516,1.2453,3.2166,1.252,4.8204 c0.0357,8.6293,0.0458,17.2589,0.0032,25.8881c-0.0179,3.6161-0.4196,7.2942,2.8699,9.6659 c-0.7636,2.1222-3.7082,0.2815-3.8495,2.7689c-1.9722,0.6044-3.9955,0.5401-6.02,0.4611 c-2.0391-14.9391-0.5169-29.9581-1.0061-44.932C97.7601,9.2052,98.4333,9.2072,99.1169,9.4779z"/><path d="M118.1368,102.5965c1.4898,0.0008,2.9846,0.0799,4.4685-0.0141c2.9305-0.1857,5.2208,0.7272,6.3454,3.6032 c0.6385,1.633,1.7781,2.9431,3.1523,3.736c4.3486,2.5089,7.221,6.5502,10.8069,9.8438c2.0402,1.874,4.433,3.3609,6.6477,5.0477 c3.1555,2.4034,6.1359,4.9656,7.5944,8.8339c0.3932,1.7901-1.8138,1.9442-2.0838,3.317l-0.3385,0.1305l-0.3736-0.0183 c-2.2831-0.2513-4.5661-0.5025-6.6881-0.736c-1.499-2.8309,2.1547-2.6891,2.1808-4.7235 c-0.2141-1.2404-1.4144-0.8566-2.3166-1.0187c-4.0228-0.7225-6.6905-3.3701-9.1071-6.3868 c-4.5643-5.6977-9.7066-10.6656-16.48-13.757C118.6587,108.9544,117.6126,106.0881,118.1368,102.5965z"/><path d="M36.3369,172.5786c2.1521-0.2176,1.925-1.702,1.1736-2.8455c-4.0652-6.1864-6.1677-13.0832-7.5587-20.2453 c-1.7349-8.9331-2.8726-17.8814-1.0497-26.9812c0.481-2.401,0.6388-4.8781,1.0166-7.3168 c1.0005-6.4578,4.3478-11.9872,6.4158-18.0068c0.272-0.7918,0.9604-1.3361,1.7881-1.6224 c-1.4584,5.7771-4.3704,11.0208-5.8919,16.8112c-4.2359,16.1209-3.3777,31.9073,2.2832,47.5021 c1.3614,3.7505,3.1582,7.3034,4.9064,10.8864c0.8447,1.7313,2.8111,3.1826,1.7145,5.7386 c-0.3435,0.8006,1.2609,1.6973,2.7251,3.1939C39.9998,177.8137,37.7368,175.6579,36.3369,172.5786z"/><path d="M180.1547,80.5598c0.4552-3.9963,4.5519-4.4431,6.7364-6.7657c1.0835-1.152,2.7369-1.7731,3.3717-3.8925 c-2.5441-4.1499-6.0211-8.2506-5.9346-14.1074c4.2817,0.4018,3.3848,4.6408,5.487,6.4271c1.326,0.6205,2.1391,0.0364,2.6434-1.2379 c2.627,3.383,4.0041,7.0991,3.0428,11.4382c-2.5901-0.163-4.6582,0.6315-6.4699,2.668 C186.6631,77.7518,183.2963,79.0253,180.1547,80.5598z"/><path d="M42.4099,195.6873c2.7795,0.8367,5.5475-1.614,8.3369-0.5944c-0.0276,2.0107-1.7213,1.2235-2.1551,2.2833 c0.253,0.3059,0.4892,0.7765,0.8701,1.024c5.388,3.501,11.2164,6.1215,17.115,8.62c3.092,1.3097,6.2297,2.1356,9.9733,1.6014 c-0.0929,2.6312,2.3174,2.8306,3.5084,4.2387c-8.6756-0.926-16.5258-4.3874-24.1663-8.2534 C51.0905,202.1771,46.2017,199.7188,42.4099,195.6873z"/><path d="M156.1689,70.5458c0.3286-0.0061,0.6569-0.0206,0.9848-0.0435c3.5009-0.1997,6.6051,0.1819,7.3358,4.5466 c0.0864,0.5159,0.7854,1.0766,1.3333,1.3422c2.5005,1.2122,4.028,3.2822,5.1232,5.7054c0.4753,1.0516,1.1713,1.4978,2.254,1.4994 c-0.0382,0.6271-0.0764,1.2542-0.1146,1.8813c-0.9714,0.0187-1.9427,0.0374-2.9141,0.056 C166.1444,79.938,161.1872,75.2133,156.1689,70.5458z"/><path d="M125.5546,98.4235c-2.0693,1.3803-4.4092,1.2343-6.7254,1.1697c-1.4519-0.0405-2.7034,0.1175-2.698,2.0066 c-1.5996,2.0217-3.1251-0.4748-4.8191-0.1013c-1.4729,0.3247-3.2002,0.4694-4.7124-0.3159 c-0.6542-1.2332,0.6955-2.1163,0.4979-3.2415c0.8409-0.4629,1.877-1.5039,2.4914-1.2961c4.483,1.5162,9.0109,0.7122,13.5285,0.6004 C124.107,97.2209,125.1057,97.28,125.5546,98.4235z"/><path d="M34.8815,188.826c1.7105-0.3149,3.0884,0.1616,4.3048,1.4725c1.0731,1.1565,2.3603,2.114,3.6355,3.2317 c0.139,0.6477-0.319,1.0258-0.9456,1.2953C38.9897,193.4739,36.7855,191.3252,34.8815,188.826z"/><path d="M177.2225,40.3379c-0.0835,2.8359-1.6139,1.8846-3.0544,1.1689c0.0782-2.2524-2.7117-3.4978-2.0833-5.9434l0.2316-0.2147 C174.2585,36.7097,176.0249,38.2436,177.2225,40.3379z"/><path d="M155.0681,136.964c0.27-1.3728,2.4769-1.5268,2.0838-3.317c2.3665,0.0251,4.7331,0.0502,7.0996,0.0754 C161.4601,135.5685,158.3744,136.5793,155.0681,136.964z"/><path d="M146.1466,17.446c-0.0078,0.3439-0.0156,0.6878-0.0234,1.0318c-2.0389-0.9705-3.9315-2.2446-6.4006-2.0718 c-1.4878,0.1041-2.3668-0.9046-2.4538-2.4591C140.4431,14.5668,143.4999,15.4855,146.1466,17.446z"/><path d="M51.0894,26.5347c-0.4201,2.9643-2.1744,4.1872-5.0843,3.9022C47.2785,28.5862,48.9629,27.272,51.0894,26.5347z"/><path d="M167.3942,31.2667c2.0513,0.0928,2.8136,1.7986,3.8888,3.1129l-0.1838,0.2027c-2.0773-0.0294-4.3639,0.2179-4.0037-3.0337 L167.3942,31.2667z"/><path d="M38.1169,93.6248c1.2993-0.7075,1.2427-2.7875,3.0315-2.9995c-0.3005,1.8827-0.9039,3.5613-2.8963,4.3035 C38.2071,94.4942,38.162,94.0595,38.1169,93.6248z"/><path d="M70.1684,62.7138c0.618-1.5311,1.2388-3.0536,3.0265-0.9852C72.4695,62.929,71.2568,62.6301,70.1684,62.7138z"/><path d="M54.0854,26.4985c-0.9824,0.0006-1.9648,0.0012-2.9472,0.0018c0.6305-1.1856,1.5837-1.8927,2.9475-1.9911 C54.0856,25.1722,54.0855,25.8354,54.0854,26.4985z"/><path d="M157.3474,23.4151c-1.5052,0.0529-3.231,0.459-3.1757-1.9866C155.5985,21.5012,156.5681,22.3057,157.3474,23.4151z"/><path d="M184.3118,121.8269c-0.3351-2.5421,1.4089-2.1932,2.9507-2.1255C186.539,120.7716,186.0062,122.1068,184.3118,121.8269z"/><path d="M49.1062,79.5652c-0.0615-1.4701,0.6508-2.0976,2.0955-1.9276C50.9048,78.7174,50.4169,79.5893,49.1062,79.5652z"/><path d="M46.0265,30.414c0.1062,1.6142-0.6264,2.2403-2.2024,1.8731C44.1579,31.1913,44.8857,30.5594,46.0265,30.414z"/><path d="M89.0894,10.5896c-1.0939,1.5351-2.6851,0.6674-4.0605,0.8418C86.2399,10.4622,87.6533,10.4711,89.0894,10.5896z"/><path d="M33.819,169.8198c1.4271,0.2705,1.6344,1.6521,2.3433,2.5768C34.7027,172.1558,34.2687,170.9806,33.819,169.8198z"/><path d="M41.1387,90.6402c-0.1758-1.2503,0.274-2.0369,1.6055-2.1704C42.6464,89.5174,42.0993,90.232,41.1387,90.6402z"/><path d="M43.8517,32.2403c0.0784,0.4225,0.1567,0.845,0.2351,1.2675c-0.6069,0.0116-1.2138,0.0231-1.8207,0.0347 C42.5361,32.7932,43.0583,32.3514,43.8517,32.2403z"/><path d="M92.0057,9.9846c-0.5905,0.5954-1.3274,0.4879-2.0543,0.4288C90.5201,9.7133,91.2292,9.6871,92.0057,9.9846z"/><path d="M17.1453,68.8927c-0.0357,0.6195-0.0242,1.2599-0.7047,1.5938C16.2792,69.7798,16.2804,69.145,17.1453,68.8927z"/><path d="M27.0487,50.7315c-0.0681,0.2927-0.2325,0.5083-0.4934,0.6469C26.3807,50.9038,26.6121,50.7393,27.0487,50.7315z"/><path d="M28.0211,49.5209c-0.0539,0.4978-0.3133,0.8266-0.7969,0.9711C27.1792,49.913,27.4341,49.5805,28.0211,49.5209z"/><path d="M181.4661,44.5816c-0.7912-0.2143-1.1897-0.7257-1.1721-1.5519C180.9656,43.3345,181.3751,43.8376,181.4661,44.5816z"/><path d="M188.2232,118.7328c0.1277-0.6648,0.5471-0.988,1.2057-1.0311C189.2195,118.271,188.8464,118.6484,188.2232,118.7328z"/><path d="M187.2237,119.7266c0.092-0.6101,0.4442-0.9575,1.0536-1.0453C188.1724,119.2784,187.8242,119.6299,187.2237,119.7266z"/><path d="M42.0874,33.6731c-0.2893,0.2698-0.5786,0.5396-0.868,0.8095C41.2383,33.9222,41.516,33.64,42.0874,33.6731z"/><path d="M48.0734,80.4119c0.3296-0.2765,0.6592-0.553,0.9887-0.8294C48.7326,79.859,48.403,80.1355,48.0734,80.4119z"/><path d="M183.254,122.775c0.0632-0.6588,0.4263-1.0036,1.0854-1.0387C184.2646,122.3828,183.8817,122.707,183.254,122.775z"/><path d="M182.2204,123.7312c0.0976-0.6212,0.4578-0.9618,1.0851-1.017C183.208,123.3357,182.8115,123.6375,182.2204,123.7312z"/><path d="M43.1561,87.7326c-0.0352-0.6343,0.2615-1.0226,0.8719-1.1785C44.0612,87.187,43.737,87.5549,43.1561,87.7326z"/><path d="M164.2393,133.7888c0.1028-0.727,0.2773-1.2146,0.8824-0.2648l-0.3893,0.3058L164.2393,133.7888z"/><path d="M171.283,34.3796c0.5518,0.1017,0.9243,0.3948,1.0331,0.9693c0.0002-0.0002-0.2314,0.2146-0.2314,0.2146 c-0.3285-0.3271-0.6571-0.6541-0.9856-0.9812L171.283,34.3796z"/><path d="M166.3266,30.326c0.5724,0.0674,0.9649,0.3394,1.0677,0.9407l-0.2987,0.2818c-0.3316-0.3263-0.6633-0.6525-0.9949-0.9788 L166.3266,30.326z"/><path d="M55.0532,23.8265c-0.3115,0.2206-0.623,0.4412-0.9345,0.6618C54.2224,23.9737,54.4854,23.6845,55.0532,23.8265z"/><path d="M42.085,186.7466c-0.225,0.1725-0.45,0.3451-0.675,0.5177c-0.0605-0.2975-0.121-0.595-0.1815-0.8924 C41.5556,186.4016,41.8411,186.5265,42.085,186.7466z"/><path d="M17.9349,67.2954c0.0832,0.5548-0.0931,0.9823-0.609,1.2431C17.1882,67.957,17.4226,67.558,17.9349,67.2954z"/><path d="M80.0081,212.8405c0.3227,0.0878,0.6454,0.1756,0.9682,0.2634C80.5261,213.4855,80.2374,213.2722,80.0081,212.8405z"/><path d="M78.3895,206.3856c3.851-2.0806,3.851-2.0806,6.4859,1.3542C81.7868,210.8232,80.792,210.6155,78.3895,206.3856z"/><path d="M178.1605,119.6234c0.1244-0.7166-0.043-1.6519,1.0912-1.6557c0.1968-0.0006,0.5646,0.3665,0.5642,0.5632 c-0.0021,1.1357-0.9388,0.9668-1.6534,1.0946L178.1605,119.6234z"/><path d="M166.1006,30.5698c0.3316,0.3263,0.6633,0.6525,0.9949,0.9788c-0.3602,3.2516,1.9264,3.0043,4.0037,3.0337 c0.3286,0.3271,0.6571,0.6541,0.9856,0.9812c-0.6284,2.4456,2.1615,3.691,2.0833,5.9434c-2.318,0.0787-2.0789,1.6222-1.8225,3.2167 c1.8281,1.731,4.2455,2.3883,6.6295,3.3532c-2.803,8.9108-2.3452,18.1043-3.0198,26.5853 c-0.9702,2.5219-4.3492,1.2366-4.5047,3.9668c0.6476,1.6159,2.605,0.3369,3.442,1.7485c-0.2261,0.9831-0.4798,2.0863-0.7334,3.1895 c0,0-0.4792,0.0318-0.4792,0.0318l-0.4802-0.0028c-1.0826-0.0016-1.7787-0.4478-2.254-1.4994 c-1.0952-2.4232-2.6226-4.4932-5.1232-5.7054c-0.5478-0.2656-1.2469-0.8263-1.3333-1.3422 c-0.7307-4.3648-3.8349-4.7464-7.3358-4.5466c-0.0053-0.9832-0.0105-1.9665-0.0158-2.9497c2.1274,0,4.2548,0,6.5808,0 c0.8409-5.2885,0.2353-10.2359,0.4372-15.1478c0.1196-2.9099-0.1022-5.6708,1.5304-8.5666 c1.384-2.4549,1.1435-5.8293-1.7276-8.0415c-1.5504-1.1946-3.0256-2.4867-4.5812-3.7733c0.112-1.9234,1.1808-2.7879,2.907-2.3288 C163.5511,30.0315,164.7458,30.6174,166.1006,30.5698z"/></g></svg>