<svg xmlns="http://www.w3.org/2000/svg" xmlns:xlink="http://www.w3.org/1999/xlink" id="Layer_1" width="258" height="229" x="0" style="enable-background:new 0 0 258 229" y="0" version="1.1" viewBox="0 0 258 229" xml:space="preserve"><style type="text/css">.st0{fill:#f4b344}.st1{fill:#f6d04d}.st2{fill:#f8d04d}.st3{fill:#484444}.st4{fill:#4a4844}.st5{fill:#d55d53}</style><g><path d="M89.7775,217.5945c-20.999-1.0177-38.3102-5.5761-54.0877-15.0277 c-7.2603-4.3493-11.3216-10.3404-9.5398-19.9066c1.6452-8.8327,0.6967-18.139,2.2234-27.0073 c0.7702-4.4736,3.527-10.4715,7.1014-12.1707c5.7581-2.7372,4.7912-6.1135,3.9598-10.2002 c-4.9817-24.4888-1.4998-47.7031,11.872-68.7929c20.0404-31.6073,49.3282-47.2676,86.6275-44.6921 c35.9458,2.4821,62.2406,21.1783,77.9762,53.6605c9.0164,18.6123,12.2445,38.3027,7.068,58.8294 c-1.2684,5.03-1.1333,9.0987,5.3297,11.002c2.5309,0.7453,5.5579,4.2173,6.0007,6.8449 c1.5552,9.2292,1.4408,18.7497,3.1312,27.9444c4.2223,22.9678-12.7815,28.2518-28.3494,33.0245 c-12.2242,3.7475-25.4201,5.1136-38.2685,5.7038c-6.4115,0.2946-13.0033-3.5458-19.5291-5.4629 c-4.3643-1.2822-8.7221-3.3602-13.1419-3.5287c-11.4865-0.4378-22.825-0.9767-33.2461,6.6895 C100.5303,217.7223,93.2422,216.9798,89.7775,217.5945z M128.4247,29.9523c-4.0593,0.8242-11.0337,1.9402-17.8503,3.6757 C78.6029,41.7678,59.4035,62.955,50.8333,94.0157c-2.7575,9.9939-5.4232,20.5829-1.6532,31.0591 c0.6699,1.8614,4.0915,4.5726,5.16,4.1506c6.7158-2.6523,11.64,0.6629,17.09,3.539c2.6025,1.3734,6.6249,2.3746,9.0658,1.3371 c10.9372-4.6492,17.0718,1.8483,22.3056,10.557c4.0281,6.7023,7.5256,13.8209,12.2779,19.9666 c6.3313,8.1876,12.0803,16.0526,9.0073,27.2796c-0.4271,1.5602,0.9581,5.1379,1.88,5.2761 c3.5242,0.5282,7.2766,0.3999,10.7754-0.3115c1.0079-0.2049,2.4085-3.4771,1.9963-4.8544 c-2.6218-8.7602,1.7052-15.3772,6.0306-22.1473c5.9139-9.2566,12.0367-18.4058,17.4254-27.9644 c5.1231-9.0875,13.3673-11.5882,22.6256-6.5875c1.6256,0.8781,4.7032-0.7355,7.0453-1.4205 c5.2431-1.5333,10.5245-2.9967,15.6254-4.925c2.0681-0.7818,4.9348-2.4089,5.3484-4.1482 c3.7601-15.8148,0.6589-31.2633-6.0393-45.3737C191.8976,48.0555,166.3244,31.9168,128.4247,29.9523z M68.0398,179.9861 c-0.6163,0.7203-1.2325,1.4406-1.8488,2.1609c-2.7564-1.4406-5.5215-2.8649-8.2673-4.3255 c-4.6551-2.4763-9.1489-5.3518-14.0189-7.281c-1.9653-0.7785-4.7425,0.4922-7.1503,0.8304c0.761,2.2686,1.1304,4.8,2.4162,6.7166 c0.9051,1.3491,3.0207,1.9344,4.657,2.7358c4.9548,2.4265,10.0309,4.6275,14.843,7.3059c1.0972,0.6107,1.3219,2.7887,1.9482,4.2454 c-1.433-0.077-3.0307,0.2284-4.2673-0.3044c-3.3814-1.4566-6.4621-3.7951-9.9458-4.7734c-2.9287-0.8225-6.2564-0.2243-9.4076-0.255 c1.6752,2.602,2.8303,5.9013,5.1536,7.6346c3.1078,2.3186,7.0019,3.8123,10.7705,4.9688c8.013,2.459,16.2125,4.3064,24.2437,6.7113 c9.101,2.7253,17.8519,1.9121,26.231-2.2377c9.6862-4.7971,14.1517-18.8097,8.6742-27.2979 c-6.7001-10.3829-13.6636-20.5976-20.6366-30.8007c-0.9577-1.4013-3.007-3.4924-3.8835-3.2079 c-1.7106,0.5552-3.5813,2.3095-4.2709,4.0174c-2.6016,6.4431,0.9925,10.9898,5.1069,15.4812 c1.2675,1.3836,1.3432,3.8591,1.9647,5.8346c-2.2792-0.4447-4.9508-0.3042-6.7288-1.4965 c-1.8311-1.2279-2.8076-3.7435-4.1295-5.7149c-4.121-6.1457-7.7723-12.6959-12.5812-18.2438 c-1.7551-2.0249-6.2499-1.6751-9.4947-2.4087c0.6045,3.4007,0.2307,7.4781,2.0171,10.0616 c3.7365,5.4035,8.7093,9.938,12.9546,15.0132c1.1322,1.3536,1.4691,3.3724,2.1712,5.0859 c-1.8209-0.6855-3.8762-1.0352-5.4224-2.1143c-6.9412-4.8445-13.5357-10.2218-20.7087-14.677 c-2.1745-1.3506-5.8041-0.3581-8.7673-0.4389c1.0871,2.8696,1.3793,6.6718,3.4256,8.4162 c4.3674,3.723,9.7885,6.1766,14.5015,9.5379C61.2881,173.8045,64.5718,177.0246,68.0398,179.9861z M189.537,172.8724 c-0.5703-0.5007-1.1408-1.0015-1.7111-1.5022c0.5434-1.4027,0.7672-3.0745,1.6837-4.1628 c4.7731-5.667,9.8094-11.1125,14.5745-16.7859c2.4616-2.9308,6.5422-6.7491,1.1395-9.6139 c-2.2391-1.1873-6.7865,1.505-10.0453,2.9658c-1.1792,0.5286-1.6255,2.6349-2.4674,3.9832 c-3.9057,6.2556-7.5347,12.7214-11.9442,18.6009c-1.231,1.6413-4.7892,1.5371-7.2798,2.2336 c0.4634-2.1507,0.4812-4.5514,1.5099-6.3849c1.1323-2.0182,4.2544-3.3139,4.6274-5.2812 c0.7458-3.9341,0.4098-8.1308,0.0272-12.1723c-0.0756-0.7983-3.301-2.1828-3.5007-1.9497 c-2.2874,2.671-4.3845,5.5292-6.2943,8.4909c-1.2761,1.979-1.9128,4.3903-3.2818,6.2859 c-4.7975,6.6427-10.0914,12.9437-14.6337,19.7501c-6.467,9.6906-1.3243,22.9209,9.3949,27.4102 c15.3911,6.4459,29.6274,0.397,44.0236-3.2322c6.0008-1.5128,11.7273-4.5812,17.1473-7.6934 c2.0804-1.1946,2.9594-4.4816,4.3857-6.8152c-3.1473-0.0997-6.5067-0.9402-9.3887-0.1144 c-3.7206,1.066-6.9976,3.6027-10.5972,5.2119c-1.2134,0.5425-2.8281,0.1873-4.2594,0.2423 c0.633-1.3433,0.9463-3.0582,1.9742-3.9423c1.5251-1.3116,3.5155-2.1225,5.3801-2.9912c4.7674-2.2208,9.8766-3.8958,14.2197-6.7477 c1.7756-1.1659,1.9279-4.8039,2.8187-7.3174c-2.0922-0.3276-4.3167-1.2569-6.2434-0.8326 c-2.4878,0.5479-4.7339,2.1848-7.0902,3.3404c-5.0114,2.4579-10.0267,4.9078-15.0403,7.361 c-0.5212-0.798-1.0424-1.5961-1.5637-2.3942c1.7375-1.6052,3.3162-3.4397,5.2416-4.7736 c6.3049-4.3682,12.9142-8.3195,19.0132-12.9493c1.9042-1.4455,2.561-4.5342,3.7888-6.8708 c-2.8742-0.5426-6.1058-2.1722-8.5388-1.3725c-3.6374,1.1956-6.857,3.9128-9.9962,6.3194 C200.8206,163.6074,195.2179,168.2909,189.537,172.8724z" class="st0"/><path d="M128.4247,29.9523c37.8997,1.9645,63.4729,18.1032,78.3751,49.496 c6.6982,14.1104,9.7994,29.5589,6.0393,45.3737c-0.4136,1.7393-3.2803,3.3664-5.3484,4.1482 c-5.1008,1.9283-10.3823,3.3917-15.6254,4.925c-2.3421,0.6849-5.4197,2.2986-7.0453,1.4205 c-9.2583-5.0007-17.5025-2.5-22.6256,6.5875c-5.3887,9.5586-11.5115,18.7078-17.4254,27.9644 c-4.3254,6.7701-8.6524,13.3871-6.0306,22.1473c0.4122,1.3773-0.9885,4.6495-1.9963,4.8544 c-3.4988,0.7114-7.2511,0.8398-10.7754,0.3115c-0.9219-0.1382-2.3071-3.7159-1.88-5.2761 c3.073-11.2271-2.676-19.0921-9.0073-27.2796c-4.7523-6.1456-8.2498-13.2642-12.2779-19.9666 c-5.2338-8.7087-11.3684-15.2061-22.3056-10.557c-2.441,1.0376-6.4633,0.0364-9.0658-1.3371 c-5.4499-2.8761-10.3742-6.1913-17.09-3.539c-1.0685,0.422-4.4901-2.2892-5.16-4.1506c-3.77-10.4762-1.1043-21.0652,1.6532-31.0591 c8.5702-31.0607,27.7696-52.2479,59.7411-60.3878C117.391,31.8924,124.3654,30.7765,128.4247,29.9523z M112.2954,142.7817 c9.3633,9.5199,27.9382,9.2807,37.086-0.4777c9.3824-5.2996,11.8637-14.2724,12.7271-24.0596 c0.4415-5.0056-2.0759-6.1545-6.3847-4.5305c-1.7339,0.6535-3.4799,1.3531-5.0777,2.2781 c-13.6486,7.9017-27.2021,7.8196-40.7451-0.2682c-1.5854-0.9468-3.5804-2.5175-4.9789-2.1687 c-2.2464,0.5602-6.0103,2.637-5.9127,3.8036C99.8628,127.5609,102.0908,137.3511,112.2954,142.7817z M105.4066,91.5016 c0.4224,0.677,0.8447,1.3539,1.2671,2.0309c1.7906-1.3356,4.7258-2.3735,5.1647-4.0607 c1.5274-5.8709,0.0685-11.4284-5.6983-14.2945c-5.2955-2.6318-10.9684-2.6586-15.2893,2.2805 c-4.3489,4.971-4.9067,10.6395-1.0209,16.0836c2.2871,3.2042,5.1754,5.443,9.0935,1.2233 C100.4665,93.1031,103.2099,92.5562,105.4066,91.5016z M147.6723,85.5488c0.062,0.9564,0.0807,1.4846,0.1326,2.0096 c1.0134,10.2439,13.8585,0.435,15.7078,9.2668c2.0548-0.8468,5.6279-1.3643,5.8958-2.5987 c1.038-4.7854,2.4863-10.2847,1.0496-14.6108c-2.0149-6.0668-8.353-6.9207-14.1094-5.428 C150.6023,75.6777,147.8771,80.0567,147.6723,85.5488z" class="st1"/><path d="M68.0398,179.9861c-3.4681-2.9615-6.7517-6.1816-10.4505-8.8196c-4.713-3.3613-10.1341-5.8149-14.5015-9.5379 c-2.0463-1.7444-2.3385-5.5466-3.4256-8.4162c2.9632,0.0807,6.5928-0.9117,8.7673,0.4389 c7.1729,4.4551,13.7674,9.8324,20.7087,14.677c1.5462,1.0791,3.6015,1.4288,5.4224,2.1143 c-0.702-1.7134-1.039-3.7323-2.1712-5.0859c-4.2453-5.0753-9.2181-9.6097-12.9546-15.0132 c-1.7864-2.5835-1.4125-6.6608-2.0171-10.0616c3.2449,0.7336,7.7396,0.3839,9.4947,2.4087 c4.8089,5.5479,8.4602,12.098,12.5812,18.2438c1.3219,1.9713,2.2984,4.487,4.1295,5.7149c1.778,1.1922,4.4496,1.0517,6.7288,1.4965 c-0.6214-1.9755-0.6971-4.451-1.9647-5.8346c-4.1144-4.4914-7.7084-9.0381-5.1069-15.4812 c0.6896-1.7079,2.5603-3.4622,4.2709-4.0174c0.8765-0.2845,2.9258,1.8066,3.8835,3.2079 c6.973,10.2031,13.9365,20.4178,20.6366,30.8007c5.4775,8.4882,1.012,22.5008-8.6742,27.2979 c-8.3791,4.1497-17.13,4.963-26.231,2.2377c-8.0312-2.4049-16.2307-4.2522-24.2437-6.7113 c-3.7686-1.1565-7.6627-2.6502-10.7705-4.9688c-2.3233-1.7333-3.4783-5.0326-5.1536-7.6346 c3.1511,0.0307,6.4788-0.5675,9.4076,0.255c3.4837,0.9784,6.5644,3.3168,9.9458,4.7734c1.2366,0.5327,2.8344,0.2274,4.2673,0.3044 c-0.6263-1.4566-0.851-3.6347-1.9482-4.2454c-4.8121-2.6784-9.8882-4.8794-14.843-7.3059 c-1.6363-0.8014-3.7519-1.3866-4.657-2.7358c-1.2858-1.9166-1.6552-4.4479-2.4162-6.7166 c2.4078-0.3382,5.1849-1.6089,7.1503-0.8303c4.87,1.9291,9.3638,4.8047,14.0189,7.281c2.7458,1.4606,5.5109,2.8849,8.2673,4.3255 C66.8073,181.4267,67.4236,180.7064,68.0398,179.9861z" class="st2"/><path d="M189.537,172.8724c5.6809-4.5815,11.2836-9.265,17.0738-13.7039c3.1392-2.4066,6.3588-5.1238,9.9962-6.3194 c2.4331-0.7997,5.6646,0.8299,8.5388,1.3725c-1.2278,2.3365-1.8846,5.4253-3.7888,6.8708 c-6.0989,4.6298-12.7082,8.5811-19.0132,12.9493c-1.9255,1.3339-3.5042,3.1684-5.2416,4.7736 c0.5212,0.7981,1.0424,1.5961,1.5637,2.3942c5.0136-2.4532,10.0289-4.9031,15.0403-7.361 c2.3563-1.1557,4.6024-2.7926,7.0902-3.3404c1.9267-0.4243,4.1512,0.505,6.2434,0.8326c-0.8908,2.5134-1.0431,6.1514-2.8187,7.3174 c-4.3431,2.8519-9.4523,4.5269-14.2197,6.7477c-1.8647,0.8686-3.8551,1.6795-5.3801,2.9912 c-1.0279,0.884-1.3412,2.599-1.9742,3.9423c1.4313-0.0551,3.046,0.3001,4.2594-0.2424c3.5996-1.6092,6.8766-4.1459,10.5972-5.2119 c2.882-0.8258,6.2414,0.0146,9.3887,0.1144c-1.4263,2.3336-2.3053,5.6206-4.3857,6.8152 c-5.42,3.1122-11.1465,6.1806-17.1473,7.6934c-14.3962,3.6292-28.6325,9.6781-44.0236,3.2322 c-10.7193-4.4893-15.862-17.7196-9.3949-27.4102c4.5423-6.8065,9.8362-13.1074,14.6337-19.7501 c1.369-1.8956,2.0057-4.3069,3.2818-6.2859c1.9098-2.9617,4.0069-5.8199,6.2943-8.4909c0.1996-0.2331,3.425,1.1514,3.5007,1.9497 c0.3826,4.0416,0.7187,8.2382-0.0272,12.1723c-0.373,1.9673-3.4951,3.263-4.6274,5.2812 c-1.0287,1.8335-1.0465,4.2342-1.5099,6.3849c2.4906-0.6965,6.0488-0.5923,7.2798-2.2336 c4.4095-5.8795,8.0385-12.3453,11.9442-18.6009c0.8418-1.3483,1.2881-3.4546,2.4674-3.9832 c3.2589-1.4608,7.8063-4.1531,10.0453-2.9658c5.4027,2.8647,1.322,6.683-1.1395,9.6139 c-4.765,5.6734-9.8014,11.1189-14.5745,16.7859c-0.9165,1.0883-1.1403,2.7601-1.6837,4.1628 C188.3962,171.8709,188.9666,172.3717,189.537,172.8724z" class="st2"/><path d="M112.2954,142.7817c-10.2046-5.4305-12.4325-15.2208-13.2861-25.423 c-0.0976-1.1665,3.6663-3.2433,5.9127-3.8036c1.3985-0.3488,3.3935,1.2219,4.9789,2.1687 c13.543,8.0878,27.0965,8.1698,40.7451,0.2682c1.5978-0.925,3.3438-1.6246,5.0777-2.2781 c4.3088-1.6239,6.8262-0.4751,6.3847,4.5305c-0.8634,9.7873-3.3447,18.76-12.7293,24.0597 c-2.6869-2.7843-5.8647-8.2487-7.9659-7.862c-6.936,1.2764-13.6403-0.7723-20.1685,0.0603 C117.963,134.9209,115.26,139.8773,112.2954,142.7817z" class="st3"/><path d="M105.4066,91.5016c-2.1967,1.0545-4.9402,1.6015-6.4831,3.2631c-3.918,4.2197-6.8064,1.9809-9.0935-1.2233 c-3.8858-5.4442-3.328-11.1126,1.0209-16.0836c4.3209-4.939,9.9938-4.9123,15.2893-2.2805 c5.7668,2.8661,7.2257,8.4236,5.6983,14.2945c-0.439,1.6873-3.3741,2.7251-5.1647,4.0607 C106.2514,92.8556,105.829,92.1786,105.4066,91.5016z" class="st4"/><path d="M147.6723,85.5488c0.2048-5.4921,2.93-9.8711,8.6764-11.3611c5.7564-1.4926,12.0945-0.6388,14.1094,5.428 c1.4367,4.3261-0.0116,9.8253-1.0496,14.6108c-0.2678,1.2345-3.841,1.7519-5.8958,2.5987 c-1.8492-8.8318-14.6944,0.9771-15.7078-9.2668C147.753,87.0334,147.7343,86.5052,147.6723,85.5488z" class="st4"/><path d="M112.2954,142.7817c2.9647-2.9043,5.6676-7.8608,8.9494-8.2793c6.5282-0.8326,13.2325,1.216,20.1685-0.0603 c2.1012-0.3866,5.279,5.0778,7.9659,7.862C140.2336,152.0623,121.6587,152.3016,112.2954,142.7817z" class="st5"/></g></svg>