<?xml version="1.0" encoding="utf-8"?>
<!-- Generator: Adobe Illustrator 24.0.1, SVG Export Plug-In . SVG Version: 6.00 Build 0)  -->
<svg version="1.1" id="Layer_1" xmlns="http://www.w3.org/2000/svg" xmlns:xlink="http://www.w3.org/1999/xlink" x="0px" y="0px"
	 width="471.1697px" height="317.1178px" viewBox="0 0 471.1697 317.1178" style="enable-background:new 0 0 471.1697 317.1178;"
	 xml:space="preserve">
<style type="text/css">
	.st0{fill:#252525;}
	.st1{fill:#D4625B;}
	.st2{fill:#5FAC51;}
	.st3{fill:#A978C0;}
	.st4{fill:#6581DE;}
</style>
<g>
	<path class="st0" d="M196.41,250.117c-5.0036,4.0716-10.0111,7.3384-15.451,9.9723c-13.9922,6.7747-27.8494,5.9597-41.5017-0.8045
		c-10.7883-5.3451-18.3093-13.6777-21.8615-25.3379c-1.0464-3.4348-1.4367-6.963-1.4354-10.5509
		c0.0107-30.1416,0.0155-60.2833-0.0265-90.4249c-0.0019-1.3764,0.3273-1.7451,1.7243-1.7383
		c11.9993,0.0591,23.9993,0.0655,35.9985-0.0029c1.6458-0.0094,2.1558,0.3534,2.1524,2.097
		c-0.0586,29.7724-0.0498,59.545-0.0368,89.3176c0.0039,8.8561,4.4155,15.2311,12.56,18.2342
		c4.911,1.8108,9.6191,1.5163,14.1249-1.3085c5.3497-3.3539,9.6609-7.7439,13.2492-12.9018
		c0.5952-0.8556,0.499-1.7402,0.4991-2.6448c0.0056-30.1416,0.002-60.2833,0.0092-90.4249
		c0.0006-2.6425-0.3467-2.3244,2.3774-2.3271c11.8766-0.0116,23.7532,0.0187,35.6296-0.0364
		c1.4088-0.0065,1.8462,0.2982,1.8446,1.7945c-0.0444,42.5058-0.0424,85.0117-0.0054,127.5175
		c0.0012,1.3391-0.2656,1.7418-1.6866,1.7342c-12.1224-0.0646-24.2453-0.0621-36.3678-0.0038
		c-1.4415,0.0069-1.8835-0.3493-1.8324-1.8195C196.4888,257.1508,196.41,253.8366,196.41,250.117z"/>
	<path class="st0" d="M431.1806,251.9641c-2.8521,2.1619-5.3918,4.2843-8.1247,6.1191c-6.51,4.3707-13.8578,6.1131-21.5925,6.5334
		c-9.9626,0.5414-19.5387-0.7718-28.1283-6.2405c-10.7636-6.8529-15.5385-16.8791-15.0464-29.4874
		c0.4027-10.3167,5.4051-18.3256,12.9913-24.9011c7.7658-6.7312,16.9583-11.013,26.3685-14.8186
		c10.5841-4.2803,21.4442-7.7718,32.4764-10.7166c0.5513-0.1472,1.0832-0.1303,1.0602-0.9309
		c-0.2085-7.2386,0.6704-14.5375-0.943-21.6985c-2.1505-9.5447-9.0789-14.4032-18.9485-13.4505
		c-0.9785,0.0944-1.9579,0.2003-2.9285,0.3534c-8.4384,1.331-11.1734,7.993-11.5042,13.8956
		c-0.1445,2.5791-0.2287,5.1493-0.7296,7.6958c-1.3032,6.624-5.1906,10.7001-11.8451,11.9845
		c-5.1169,0.9876-10.1776,0.8308-14.9546-1.4994c-8.8352-4.3097-11.9619-14.4547-7.2472-23.5781
		c3.3221-6.4286,8.769-10.6723,15.0076-13.9782c9.4104-4.9867,19.5443-7.6046,30.0855-8.5805
		c11.577-1.0718,23.1037-0.6212,34.4577,2.1212c6.5,1.5699,12.6253,4.0181,17.9598,8.1742
		c7.2423,5.6425,10.7708,13.2021,11.4449,22.2195c0.1007,1.3472,0.0899,2.7045,0.0901,4.0572
		c0.0046,31.6738-0.0084,63.3477,0.0395,95.0215c0.0024,1.5626-0.2871,2.0436-1.9691,2.0317
		c-12.12-0.0859-24.2409-0.0733-36.3612-0.0096c-1.4163,0.0074-1.7454-0.3831-1.6917-1.7343
		C431.2574,257.7852,431.1806,255.0162,431.1806,251.9641z M431.1806,194.5649c-2.5074,1.1806-4.8495,2.218-7.1335,3.3708
		c-7.6635,3.8683-14.973,8.2492-20.7189,14.7992c-6.7329,7.6751-6.7247,19.1632-0.0401,26.5416
		c2.5875,2.8561,5.6131,4.2206,9.5414,3.4273c2.3186-0.4683,4.5096-1.1898,6.547-2.3529c3.6854-2.1039,7.1387-4.5627,10.6134-6.9914
		c0.9122-0.6376,1.2237-1.3089,1.2173-2.4096c-0.0488-8.2428-0.0266-16.486-0.0266-24.7291
		C431.1806,202.4217,431.1806,198.6225,431.1806,194.5649z"/>
	<path class="st0" d="M60.4471,213.4097c0-24.36,0.0135-48.7201-0.0348-73.08c-0.0028-1.4,0.3305-2.0123,1.7411-2.3927
		c12.1458-3.2753,24.2702-6.6299,36.3956-9.9805c1.2451-0.3441,1.882-0.4129,1.8796,1.3298
		c-0.0634,45.3981-0.038,90.7963-0.0994,136.1944c-0.0112,8.2635-0.9466,16.4322-3.6454,24.3173
		c-4.5876,13.4036-13.6414,21.9426-27.5814,24.9026c-12.6814,2.6927-25.4732,3.2822-38.3024,1.0225
		c-4.6355-0.8165-9.002-2.4063-12.9039-5.1287c-4.5606-3.182-7.6772-7.1631-6.8939-13.0932
		c0.7443-5.6348,4.319-9.1227,9.3314-11.1694c4.1214-1.6829,8.4823-1.9898,12.8696-1.152c2.5327,0.4836,4.6891,1.7434,6.5869,3.4953
		c2.4515,2.263,4.5646,4.8148,6.6217,7.4268c1.3356,1.6959,2.7958,3.28,4.7887,4.2473c2.5854,1.2548,4.9809,0.632,6.6149-1.7384
		c1.6363-2.3737,1.9432-5.1437,2.2385-7.8911c0.3618-3.3659,0.4021-6.7498,0.4001-10.1355
		C60.4406,258.1928,60.447,235.8013,60.4471,213.4097z"/>
	<path class="st0" d="M291.5709,67.7219c0,0.885,0,1.5589,0,2.2327c0,63.3444-0.0087,126.6888,0.0433,190.0332
		c0.0015,1.8224-0.3742,2.324-2.2684,2.3079c-11.873-0.101-23.7473-0.076-35.6209-0.0184
		c-1.4259,0.0069-1.8255-0.3369-1.8246-1.8025c0.0395-60.0235,0.0344-120.0469,0.0284-180.0703
		c-0.0001-1.0048-0.0848-1.7897,1.307-2.1659c12.496-3.3773,24.9646-6.8561,37.4416-10.3038
		C290.909,67.8708,291.1452,67.8228,291.5709,67.7219z"/>
	<path class="st0" d="M347.2252,194.7978c0,21.831-0.0219,43.6621,0.0432,65.493c0.005,1.6774-0.4662,2.0004-2.0463,1.9914
		c-11.9958-0.0685-23.9922-0.0592-35.9882-0.0078c-1.3772,0.0059-1.8449-0.2566-1.8431-1.7675
		c0.047-40.1568,0.0424-80.3136,0.0127-120.4704c-0.0009-1.1699,0.2874-1.6947,1.4859-2.0212
		c12.2488-3.3372,24.4842-6.7244,36.7061-10.1589c1.5591-0.4381,1.6562,0.1415,1.6541,1.4485
		C347.2155,151.1358,347.2252,172.9668,347.2252,194.7978z"/>
	<path class="st1" d="M357.0818,93.0482c-0.0545,14.9692-12.2179,27.039-27.1784,26.9693
		c-14.9742-0.0698-26.9638-12.3118-26.8921-27.4582c0.0693-14.6404,12.3406-26.7251,27.1036-26.6913
		C345.0602,65.9022,357.1364,78.0739,357.0818,93.0482z"/>
	<path class="st2" d="M335.3897,37.4965c0.0088-14.9752,12.1144-27.0483,27.1052-27.0322
		c14.8992,0.016,27.0303,12.2331,26.9872,27.1785c-0.043,14.9013-12.3207,27.0538-27.2276,26.95
		C347.3687,64.4891,335.381,52.3981,335.3897,37.4965z"/>
	<path class="st3" d="M421.9001,93.0523c-0.1016,14.8799-12.5229,27.1451-27.3203,26.977
		c-14.9318-0.1696-27.0836-12.4394-26.8687-27.3835c0.2129-14.8076,11.965-26.756,27.275-26.7563
		C409.8159,65.8893,422.0006,78.3215,421.9001,93.0523z"/>
	<path class="st4" d="M52.954,92.7986c0.0513-14.8999,12.2238-27.0167,27.0597-26.9359
		c15.0466,0.082,27.0649,12.2819,26.9984,27.4066c-0.0645,14.6662-12.3471,26.7923-27.0989,26.7537
		C64.934,119.9839,52.9022,107.8336,52.954,92.7986z"/>
</g>
</svg>
