<?xml version="1.0" encoding="utf-8"?>
<!-- Generator: Adobe Illustrator 24.0.1, SVG Export Plug-In . SVG Version: 6.00 Build 0)  -->
<svg version="1.1" id="Layer_1" xmlns="http://www.w3.org/2000/svg" xmlns:xlink="http://www.w3.org/1999/xlink" x="0px" y="0px"
	 width="369px" height="372px" viewBox="0 0 369 372" style="enable-background:new 0 0 369 372;" xml:space="preserve">
<style type="text/css">
	.st0{fill:#FEFEFE;}
	.st1{fill:#A9ABAC;}
	.st2{fill:#7D7D7D;}
	.st3{fill:#D6D6D6;}
</style>
<g>
	<path d="M364.8192,185.4161c-0.0163,99.5132-80.6982,179.9006-180.5148,179.8557c-99.058-0.0446-179.5197-80.8694-179.451-180.2609
		C4.922,85.7164,85.6769,5.3288,185.284,5.4008C284.3487,5.4723,364.8354,86.1743,364.8192,185.4161z M216.5672,237.6241
		c0.5428,0.252,1.0922,0.4906,1.6273,0.758c17.7268,8.8581,35.4519,17.7194,53.1782,26.5785
		c1.266,0.6327,2.5102,1.3201,3.8139,1.8635c2.5219,1.0513,4.4918-0.1252,4.8286-2.8224c0.0537-0.4304,0.0382-0.8707,0.0383-1.3064
		c0.0016-42.0208,0.0027-84.0417-0.0103-126.0625c-0.0002-0.5616,0.2531-1.2111-0.3283-1.674
		c-0.32-1.0369-1.3122-1.2327-2.1102-1.6324c-19.3291-9.683-38.6648-19.3528-57.9997-29.0242
		c-2.5313-1.2662-3.2171-1.0594-4.7348,1.4066c-12.8627,20.9002-25.7232,41.8017-38.6034,62.6911
		c-0.3528,0.5722-0.5123,1.3368-1.263,1.6129c-6.9263-11.2552-13.8509-22.5116-20.7849-33.7621
		c-0.3078-0.4995-0.5103-1.0907-1.0597-1.4143c-0.3393-0.6249-0.9944-0.8238-1.5645-1.1092
		c-18.1017-9.0608-36.2072-18.1142-54.3174-27.158c-1.5027-0.7504-3.0101-1.5115-4.5752-2.1115
		c-1.5591-0.5977-2.6886,0.2263-2.8039,1.8865c-0.034,0.4885-0.016,0.9808-0.016,1.4713
		c-0.0005,41.6475,0.0184,83.2951-0.0348,124.9426c-0.0045,3.496,1.462,5.6954,4.5133,7.213
		c17.4154,8.6614,34.8021,17.3804,52.2001,26.077c0.5828,0.2914,1.1673,0.5877,1.7746,0.8203
		c2.7293,1.0454,4.6827-0.2312,4.8224-3.1377c0.0209-0.4352,0.0105-0.872,0.0105-1.308c0.0005-6.378,0.0051-12.7559-0.0007-19.1339
		c-0.0111-12.3189-0.0282-24.6379-0.0428-36.9568c0.6736-0.2979,1.1378,0.2115,1.6439,0.4639
		c13.3188,6.6446,26.6265,13.3116,39.946,19.9548c7.165,3.5736,14.3484,7.1104,21.5235,10.6638
		C216.2706,237.6056,216.3814,237.6737,216.5672,237.6241z"/>
	<path class="st0" d="M153.1247,206.3321c0.0146,12.3189,0.0317,24.6379,0.0429,36.9568
		c0.0058,6.3779,0.0012,12.7559,0.0007,19.1339c0,0.436,0.0104,0.8728-0.0105,1.308c-0.1397,2.9066-2.0931,4.1831-4.8224,3.1377
		c-0.6073-0.2326-1.1917-0.5289-1.7746-0.8203c-17.3979-8.6966-34.7846-17.4156-52.2001-26.077
		c-3.0514-1.5176-4.5178-3.7171-4.5133-7.213c0.0532-41.6475,0.0343-83.295,0.0348-124.9426c0-0.4905-0.0179-0.9828,0.016-1.4713
		c0.1154-1.6602,1.2448-2.4842,2.8039-1.8865c1.5651,0.6,3.0725,1.361,4.5752,2.1115c18.1102,9.0438,36.2157,18.0971,54.3174,27.158
		c0.5701,0.2854,1.2251,0.4842,1.5645,1.1092c-0.0164,0.2714-0.0472,0.5429-0.0471,0.8143
		C153.1147,159.2112,153.1198,182.7716,153.1247,206.3321z"/>
	<path class="st1" d="M175.0038,170.0127c0.7507-0.2761,0.9102-1.0407,1.263-1.6129
		c12.8802-20.8894,25.7407-41.7909,38.6034-62.6911c1.5177-2.4659,2.2034-2.6727,4.7348-1.4066
		c19.3349,9.6713,38.6706,19.3412,57.9997,29.0242c0.798,0.3998,1.7902,0.5956,2.1102,1.6324
		c-0.2989,0.5673-0.5653,1.1547-0.902,1.6986c-2.0615,3.3293-4.1557,6.6384-6.2082,9.9732
		c-9.0079,14.6359-18.0071,29.2771-27.0058,43.9186c-5.9803,9.7302-11.944,19.4707-17.935,29.1943
		c-3.6795,5.9721-7.3965,11.9211-11.0966,17.8805c-0.1858,0.0496-0.2966-0.0185-0.3292-0.2095
		c0.0435-0.4176-0.2147-0.705-0.4147-1.0313c-4.942-8.0613-9.86-16.1373-14.8154-24.1903
		C192.3516,198.1257,183.673,184.0721,175.0038,170.0127z"/>
	<path class="st2" d="M216.5672,237.6241c3.7001-5.9594,7.4171-11.9084,11.0966-17.8805
		c5.991-9.7236,11.9547-19.4641,17.935-29.1943c8.9987-14.6415,17.9979-29.2828,27.0058-43.9186
		c2.0525-3.3348,4.1467-6.6439,6.2082-9.9732c0.3368-0.5439,0.6031-1.1313,0.902-1.6986c0.5814,0.4629,0.3282,1.1124,0.3283,1.674
		c0.013,42.0208,0.0118,84.0417,0.0103,126.0625c0,0.4357,0.0155,0.876-0.0383,1.3064c-0.3369,2.6972-2.3067,3.8737-4.8286,2.8224
		c-1.3037-0.5434-2.5479-1.2308-3.8139-1.8635c-17.7262-8.8591-35.4514-17.7204-53.1782-26.5785
		C217.6594,238.1147,217.11,237.8761,216.5672,237.6241z"/>
	<path class="st3" d="M175.0038,170.0127c8.6693,14.0593,17.3478,28.113,26.0041,42.1803
		c4.9554,8.053,9.8734,16.129,14.8154,24.1903c0.2,0.3262,0.4582,0.6137,0.4147,1.0313
		c-7.1751-3.5534-14.3585-7.0901-21.5235-10.6638c-13.3195-6.6432-26.6272-13.3102-39.946-19.9548
		c-0.5061-0.2525-0.9702-0.7619-1.6439-0.4639c-0.0049-23.5604-0.01-47.1209-0.0127-70.6813c0-0.2714,0.0307-0.5429,0.0471-0.8143
		c0.5495,0.3235,0.7519,0.9147,1.0597,1.4143C161.1529,147.5011,168.0775,158.7575,175.0038,170.0127z"/>
</g>
</svg>
